<?xml version="1.0" encoding="UTF-8" standalone="no"?>
<!DOCTYPE svg PUBLIC "-//W3C//DTD SVG 1.1//EN" "http://www.w3.org/Graphics/SVG/1.1/DTD/svg11.dtd">
<svg version="1.1" xmlns="http://www.w3.org/2000/svg" xmlns:xlink="http://www.w3.org/1999/xlink" preserveAspectRatio="xMidYMid meet" viewBox="300 15 100 65.66666666666671" width="100" height="65.67"><defs><path d="M330 30C330 38.28 323.28 45 315 45C306.72 45 300 38.28 300 30C300 21.72 306.72 15 315 15C323.28 15 330 21.72 330 30Z" id="dxEBloEfe"></path><path d="M365 30C365 38.28 358.28 45 350 45C341.72 45 335 38.28 335 30C335 21.72 341.72 15 350 15C358.28 15 365 21.72 365 30Z" id="f1tGzIWt7Q"></path><path d="M400 30C400 38.28 393.28 45 385 45C376.72 45 370 38.28 370 30C370 21.72 376.72 15 385 15C393.28 15 400 21.72 400 30Z" id="f4zrGIrZD7"></path><path d="M330 65.67C330 73.95 323.28 80.67 315 80.67C306.72 80.67 300 73.95 300 65.67C300 57.39 306.72 50.67 315 50.67C323.28 50.67 330 57.39 330 65.67Z" id="h9SQduXGG"></path><path d="M365 65.67C365 73.95 358.28 80.67 350 80.67C341.72 80.67 335 73.95 335 65.67C335 57.39 341.72 50.67 350 50.67C358.28 50.67 365 57.39 365 65.67Z" id="c8Qgpm3It"></path><path d="M400 65.67C400 73.95 393.28 80.67 385 80.67C376.72 80.67 370 73.95 370 65.67C370 57.39 376.72 50.67 385 50.67C393.28 50.67 400 57.39 400 65.67Z" id="aO0C3rvAX"></path></defs><g><g><g><g><use xlink:href="#dxEBloEfe" opacity="1" fill="#63b3ed" fill-opacity="1"></use></g><g><use xlink:href="#f1tGzIWt7Q" opacity="1" fill="#63b3ed" fill-opacity="1"></use></g><g><use xlink:href="#f4zrGIrZD7" opacity="1" fill="#63b3ed" fill-opacity="1"></use></g></g><g><g><use xlink:href="#h9SQduXGG" opacity="1" fill="#63b3ed" fill-opacity="1"></use></g><g><use xlink:href="#c8Qgpm3It" opacity="1" fill="#63b3ed" fill-opacity="1"></use></g><g><use xlink:href="#aO0C3rvAX" opacity="1" fill="#63b3ed" fill-opacity="1"></use></g></g></g></g></svg>