<?xml version="1.0" encoding="UTF-8" standalone="no"?>
<!DOCTYPE svg PUBLIC "-//W3C//DTD SVG 1.1//EN" "http://www.w3.org/Graphics/SVG/1.1/DTD/svg11.dtd">
<svg version="1.1" xmlns="http://www.w3.org/2000/svg" xmlns:xlink="http://www.w3.org/1999/xlink" preserveAspectRatio="xMidYMid meet" viewBox="300 95 135 65.66666666666671" width="135" height="65.67"><defs><path d="M330 110C330 118.28 323.28 125 315 125C306.72 125 300 118.28 300 110C300 101.72 306.72 95 315 95C323.28 95 330 101.72 330 110Z" id="e52ZZJh9uI"></path><path d="M365 110C365 118.28 358.28 125 350 125C341.72 125 335 118.28 335 110C335 101.72 341.72 95 350 95C358.28 95 365 101.72 365 110Z" id="e3VX5Ru0U"></path><path d="M400 110C400 118.28 393.28 125 385 125C376.72 125 370 118.28 370 110C370 101.72 376.72 95 385 95C393.28 95 400 101.72 400 110Z" id="b1UQOJ87qr"></path><path d="M330 145.67C330 153.95 323.28 160.67 315 160.67C306.72 160.67 300 153.95 300 145.67C300 137.39 306.72 130.67 315 130.67C323.28 130.67 330 137.39 330 145.67Z" id="aHVedKucH"></path><path d="M365 145.67C365 153.95 358.28 160.67 350 160.67C341.72 160.67 335 153.95 335 145.67C335 137.39 341.72 130.67 350 130.67C358.28 130.67 365 137.39 365 145.67Z" id="bcJSfVoSY"></path><path d="M400 145.67C400 153.95 393.28 160.67 385 160.67C376.72 160.67 370 153.95 370 145.67C370 137.39 376.72 130.67 385 130.67C393.28 130.67 400 137.39 400 145.67Z" id="f5mPZ2WOvU"></path><path d="M435 145C435 153.28 428.28 160 420 160C411.72 160 405 153.28 405 145C405 136.72 411.72 130 420 130C428.28 130 435 136.72 435 145Z" id="b8tajKEfkY"></path><path d="M435 110C435 118.28 428.28 125 420 125C411.72 125 405 118.28 405 110C405 101.72 411.72 95 420 95C428.28 95 435 101.72 435 110Z" id="a5aCZX63i"></path></defs><g><g><g><use xlink:href="#e52ZZJh9uI" opacity="1" fill="#63b3ed" fill-opacity="1"></use></g><g><use xlink:href="#e3VX5Ru0U" opacity="1" fill="#63b3ed" fill-opacity="1"></use></g><g><use xlink:href="#b1UQOJ87qr" opacity="1" fill="#63b3ed" fill-opacity="1"></use></g><g><use xlink:href="#aHVedKucH" opacity="1" fill="#63b3ed" fill-opacity="1"></use></g><g><use xlink:href="#bcJSfVoSY" opacity="1" fill="#63b3ed" fill-opacity="1"></use></g><g><use xlink:href="#f5mPZ2WOvU" opacity="1" fill="#63b3ed" fill-opacity="1"></use></g><g><use xlink:href="#b8tajKEfkY" opacity="1" fill="#63b3ed" fill-opacity="1"></use></g><g><use xlink:href="#a5aCZX63i" opacity="1" fill="#63b3ed" fill-opacity="1"></use></g></g></g></svg>